{"title":"Fullmetal Alchemist; The Sacred Star of Milos [1080p;Dual Audio]","uid":9157373,"size":5858065150,"categoryP":"video","categoryS":"hd___movies","magnet":"?xt=urn:btih:c31c02e0a12ea50d799e8c67c67efc190e51036f&amp;dn=Fullmetal+Alchemist%3B+The+Sacred+Star+of+Milos+%5B1080p%3BDual+Audio%5D&amp;tr=udp%3A%2F%2Ftracker.openbittorrent.com%3A80&amp;tr=udp%3A%2F%2Fopen.demonii.com%3A1337&amp;tr=udp%3A%2F%2Ftracker.coppersurfer.tk%3A6969&amp;tr=udp%3A%2F%2Fexodus.desync.com%3A6969","seeders":7,"leechers":2,"uploader":"jnx_r","files":1,"time":1383800221,"description":"Many thanks to OP&gt; RaW D Coy[Nyaa]\n\nOP&gt;&gt;----------------------------------\n\nHave fun :3\n\n\nInfo Dump:\n\nGeneral\nUnique ID : 245619517635928120037821911119767549831 (0xB8C899305B0A34CD984BAA92EF243787)\nFormat : Matroska\nFormat version : Version 2\nFile size : 5.46 GiB\nDuration : 1h 50mn\nOverall bit rate : 7 051 Kbps\nEncoded date : UTC 2012-07-16 13:44:06\nWriting application : mkvmerge v4.6.0 ('Still Crazy After All These Years') built on Mar 10 2011 02:50:32\nWriting library : libebml v1.2.0 + libmatroska v1.1.0\n\nVideo\nID : 1\nFormat : AVC\nFormat/Info : Advanced Video Codec\nFormat profile : &lt;a class=&quot;__cf_email__&quot; href=&quot;/cdn-cgi/l/email-protection&quot; data-cfemail=&quot;9ad2f3fdf2dad6aeb4ab&quot;&gt;[email&amp;#160;protected]&lt;/a&gt;&lt;script cf-hash='f9e31' type=&quot;text/javascript&quot;&gt;\n/* &lt;![CDATA[ */!function(){try{var t=&quot;currentScript&quot;in document?document.currentScript:function(){for(var t=document.getElementsByTagName(&quot;script&quot;),e=t.length;e--;)if(t[e].getAttribute(&quot;cf-hash&quot;))return t[e]}();if(t&amp;&amp;t.previousSibling){var e,r,n,i,c=t.previousSibling,a=c.getAttribute(&quot;data-cfemail&quot;);if(a){for(e=&quot;&quot;,r=parseInt(a.substr(0,2),16),n=2;a.length-n;n+=2)i=parseInt(a.substr(n,2),16)^r,e+=String.fromCharCode(i);e=document.createTextNode(e),c.parentNode.replaceChild(e,c)}}}catch(u){}}();/* ]]&gt; */&lt;/script&gt;\nFormat settings, CABAC : Yes\nFormat settings, ReFrames : 4 frames\nMuxing mode : Header stripping\nCodec ID : V_MPEG4/ISO/AVC\nDuration : 1h 50mn\nBit rate : 6 155 Kbps\nWidth : 1 920 pixels\nHeight : 1 080 pixels\nDisplay aspect ratio : 16:9\nFrame rate mode : Constant\nFrame rate : 23.976 fps\nColor space : YUV\nChroma subsampling : 4:2:0\nBit depth : 8 bits\nScan type : Progressive\nBits/(Pixel*Frame) : 0.124\nStream size : 4.65 GiB (85%)\nWriting library : x264 core 125 r2200 999b753\nEncoding settings : cabac=1 // deblock=1:0:0 / analyse=0x3:0x133 / me=umh / subme=8 / psy=1 / psy_rd=1.00:0.00 // me_range=16 / chroma_me=1 / trellis=1 / 8x8dct=1 / cqm=0 / deadzone=21,11 / fast_pskip=0 / chroma_qp_offset=-2 / threads=12 / lookahead_threads=2 / sliced_threads=0 / nr=0 / decimate=1 / interlaced=0 / bluray_compat=0 / constrained_intra=0 / bframes=3 / b_pyramid=2 / b_adapt=1 / b_bias=0 / direct=1 / weightb=1 / open_gop=0 / weightp=2 / keyint=250 / keyint_min=23 / scenecut=40 / intra_refresh=0 / rc_lookahead=40 / rc=2pass / mbtree=1 / bitrate=6155 / ratetol=1.0 / qcomp=0.60 / qpmin=0 / qpmax=69 / qpstep=4 / cplxblur=20.0 / qblur=0.5 / ip_ratio=1.40 / aq=1:1.00\nLanguage : English\nDefault : Yes\nForced : No\n\nAudio #1\nID : 2\nFormat : AC-3\nFormat/Info : Audio Coding 3\nMode extension : CM (complete main)\nFormat settings, Endianness : Big\nMuxing mode : Header stripping\nCodec ID : A_AC3\nDuration : 1h 50mn\nBit rate mode : Constant\nBit rate : 448 Kbps\nChannel count : 6 channels\nChannel positions : Front: L C R, Side: L R, LFE\nSampling rate : 48.0 KHz\nBit depth : 16 bits\nCompression mode : Lossy\nStream size : 355 MiB (6%)\nDefault : Yes\nForced : No\n\nAudio #2\nID : 3\nFormat : AC-3\nFormat/Info : Audio Coding 3\nMode extension : CM (complete main)\nFormat settings, Endianness : Big\nMuxing mode : Header stripping\nCodec ID : A_AC3\nDuration : 1h 50mn\nBit rate mode : Constant\nBit rate : 448 Kbps\nChannel count : 6 channels\nChannel positions : Front: L C R, Side: L R, LFE\nSampling rate : 48.0 KHz\nBit depth : 16 bits\nCompression mode : Lossy\nStream size : 355 MiB (6%)\nDefault : No\nForced : No\n\nText\nID : 4\nFormat : UTF-8\nCodec ID : S_TEXT/UTF8\nCodec ID/Info : UTF-8 Plain Text\nDefault : Yes\nForced : No\n\n----------------------------------------\nNo uploaded in KAT, so did my bit of share.\n\nregards,\n-jnx_r\n","torrent":{"xt":"urn:btih:c31c02e0a12ea50d799e8c67c67efc190e51036f","amp;dn":"Fullmetal+Alchemist%3B+The+Sacred+Star+of+Milos+%5B1080p%3BDual+Audio%5D","amp;tr":["udp%3A%2F%2Ftracker.openbittorrent.com%3A80","udp%3A%2F%2Fopen.demonii.com%3A1337","udp%3A%2F%2Ftracker.coppersurfer.tk%3A6969","udp%3A%2F%2Fexodus.desync.com%3A6969"],"infoHash":"c31c02e0a12ea50d799e8c67c67efc190e51036f","infoHashBuffer":{"type":"Buffer","data":[195,28,2,224,161,46,165,13,121,158,140,103,198,126,252,25,14,81,3,111]},"announce":[],"urlList":[]}}